<?xml version="1.0" encoding="UTF-8" standalone="no"?>
<!DOCTYPE svg PUBLIC "-//W3C//DTD SVG 1.1//EN"
 "http://www.w3.org/Graphics/SVG/1.1/DTD/svg11.dtd">
<!-- Generated by graphviz version 2.43.0 (0)
 -->
<!-- Title: %3 Pages: 1 -->
<svg width="2054pt" height="476pt"
 viewBox="0.00 0.00 2054.18 476.00" xmlns="http://www.w3.org/2000/svg" xmlns:xlink="http://www.w3.org/1999/xlink">
<g id="graph0" class="graph" transform="scale(1 1) rotate(0) translate(4 472)">
<title>%3</title>
<polygon fill="white" stroke="transparent" points="-4,4 -4,-472 2050.18,-472 2050.18,4 -4,4"/>
<!-- [root] aws_db_instance.default (expand) -->
<g id="node1" class="node">
<title>[root] aws_db_instance.default (expand)</title>
<polygon fill="none" stroke="black" points="1275.5,-324 1125.5,-324 1125.5,-288 1275.5,-288 1275.5,-324"/>
<text text-anchor="middle" x="1200.5" y="-302.3" font-family="Times,serif" font-size="14.00">aws_db_instance.default</text>
</g>
<!-- [root] aws_db_subnet_group._ (expand) -->
<g id="node2" class="node">
<title>[root] aws_db_subnet_group._ (expand)</title>
<polygon fill="none" stroke="black" points="1088,-252 939,-252 939,-216 1088,-216 1088,-252"/>
<text text-anchor="middle" x="1013.5" y="-230.3" font-family="Times,serif" font-size="14.00">aws_db_subnet_group._</text>
</g>
<!-- [root] aws_db_instance.default (expand)&#45;&gt;[root] aws_db_subnet_group._ (expand) -->
<g id="edge1" class="edge">
<title>[root] aws_db_instance.default (expand)&#45;&gt;[root] aws_db_subnet_group._ (expand)</title>
<path fill="none" stroke="black" d="M1154.75,-287.88C1128.74,-278.14 1095.97,-265.87 1068.55,-255.61"/>
<polygon fill="black" stroke="black" points="1069.69,-252.3 1059.1,-252.07 1067.24,-258.85 1069.69,-252.3"/>
</g>
<!-- [root] aws_security_group.sg_private (expand) -->
<g id="node9" class="node">
<title>[root] aws_security_group.sg_private (expand)</title>
<polygon fill="none" stroke="black" points="560,-252 375,-252 375,-216 560,-216 560,-252"/>
<text text-anchor="middle" x="467.5" y="-230.3" font-family="Times,serif" font-size="14.00">aws_security_group.sg_private</text>
</g>
<!-- [root] aws_db_instance.default (expand)&#45;&gt;[root] aws_security_group.sg_private (expand) -->
<g id="edge2" class="edge">
<title>[root] aws_db_instance.default (expand)&#45;&gt;[root] aws_security_group.sg_private (expand)</title>
<path fill="none" stroke="black" d="M1125.38,-300.73C1008.68,-293.64 776.6,-277.75 570.31,-252.17"/>
<polygon fill="black" stroke="black" points="570.55,-248.68 560.19,-250.91 569.68,-255.62 570.55,-248.68"/>
</g>
<!-- [root] var.allocated_storage -->
<g id="node14" class="node">
<title>[root] var.allocated_storage</title>
<polygon fill="none" stroke="black" points="1911,-252 1786,-252 1786,-216 1917,-216 1917,-246 1911,-252"/>
<polyline fill="none" stroke="black" points="1911,-252 1911,-246 "/>
<polyline fill="none" stroke="black" points="1917,-246 1911,-246 "/>
<text text-anchor="middle" x="1851.5" y="-230.3" font-family="Times,serif" font-size="14.00">var.allocated_storage</text>
</g>
<!-- [root] aws_db_instance.default (expand)&#45;&gt;[root] var.allocated_storage -->
<g id="edge3" class="edge">
<title>[root] aws_db_instance.default (expand)&#45;&gt;[root] var.allocated_storage</title>
<path fill="none" stroke="black" d="M1275.59,-301.33C1384.14,-295.3 1591.26,-281.13 1775.93,-252.14"/>
<polygon fill="black" stroke="black" points="1776.49,-255.59 1785.82,-250.57 1775.4,-248.68 1776.49,-255.59"/>
</g>
<!-- [root] var.db_name -->
<g id="node16" class="node">
<title>[root] var.db_name</title>
<polygon fill="none" stroke="black" points="2016,-252 1935,-252 1935,-216 2022,-216 2022,-246 2016,-252"/>
<polyline fill="none" stroke="black" points="2016,-252 2016,-246 "/>
<polyline fill="none" stroke="black" points="2022,-246 2016,-246 "/>
<text text-anchor="middle" x="1978.5" y="-230.3" font-family="Times,serif" font-size="14.00">var.db_name</text>
</g>
<!-- [root] aws_db_instance.default (expand)&#45;&gt;[root] var.db_name -->
<g id="edge4" class="edge">
<title>[root] aws_db_instance.default (expand)&#45;&gt;[root] var.db_name</title>
<path fill="none" stroke="black" d="M1275.6,-301.83C1431.29,-294.9 1785.65,-277.11 1924.7,-252.04"/>
<polygon fill="black" stroke="black" points="1925.55,-255.44 1934.73,-250.14 1924.25,-248.56 1925.55,-255.44"/>
</g>
<!-- [root] var.engine -->
<g id="node17" class="node">
<title>[root] var.engine</title>
<polygon fill="none" stroke="black" points="645,-252 578,-252 578,-216 651,-216 651,-246 645,-252"/>
<polyline fill="none" stroke="black" points="645,-252 645,-246 "/>
<polyline fill="none" stroke="black" points="651,-246 645,-246 "/>
<text text-anchor="middle" x="614.5" y="-230.3" font-family="Times,serif" font-size="14.00">var.engine</text>
</g>
<!-- [root] aws_db_instance.default (expand)&#45;&gt;[root] var.engine -->
<g id="edge5" class="edge">
<title>[root] aws_db_instance.default (expand)&#45;&gt;[root] var.engine</title>
<path fill="none" stroke="black" d="M1125.1,-303.85C1021.63,-300.9 830.09,-290.5 660.92,-252"/>
<polygon fill="black" stroke="black" points="661.62,-248.57 651.09,-249.72 660.04,-255.39 661.62,-248.57"/>
</g>
<!-- [root] var.engine_version -->
<g id="node18" class="node">
<title>[root] var.engine_version</title>
<polygon fill="none" stroke="black" points="782,-252 669,-252 669,-216 788,-216 788,-246 782,-252"/>
<polyline fill="none" stroke="black" points="782,-252 782,-246 "/>
<polyline fill="none" stroke="black" points="788,-246 782,-246 "/>
<text text-anchor="middle" x="728.5" y="-230.3" font-family="Times,serif" font-size="14.00">var.engine_version</text>
</g>
<!-- [root] aws_db_instance.default (expand)&#45;&gt;[root] var.engine_version -->
<g id="edge6" class="edge">
<title>[root] aws_db_instance.default (expand)&#45;&gt;[root] var.engine_version</title>
<path fill="none" stroke="black" d="M1125.46,-297.65C1046.45,-289.33 918.3,-274.24 798.35,-252.04"/>
<polygon fill="black" stroke="black" points="798.72,-248.55 788.25,-250.15 797.44,-255.43 798.72,-248.55"/>
</g>
<!-- [root] var.instance_class -->
<g id="node19" class="node">
<title>[root] var.instance_class</title>
<polygon fill="none" stroke="black" points="914.5,-252 806.5,-252 806.5,-216 920.5,-216 920.5,-246 914.5,-252"/>
<polyline fill="none" stroke="black" points="914.5,-252 914.5,-246 "/>
<polyline fill="none" stroke="black" points="920.5,-246 914.5,-246 "/>
<text text-anchor="middle" x="863.5" y="-230.3" font-family="Times,serif" font-size="14.00">var.instance_class</text>
</g>
<!-- [root] aws_db_instance.default (expand)&#45;&gt;[root] var.instance_class -->
<g id="edge7" class="edge">
<title>[root] aws_db_instance.default (expand)&#45;&gt;[root] var.instance_class</title>
<path fill="none" stroke="black" d="M1125.49,-291.41C1073.62,-281.76 1002.8,-268.05 930.97,-252.04"/>
<polygon fill="black" stroke="black" points="931.36,-248.54 920.83,-249.77 929.82,-255.37 931.36,-248.54"/>
</g>
<!-- [root] var.multi_az -->
<g id="node21" class="node">
<title>[root] var.multi_az</title>
<polygon fill="none" stroke="black" points="1185,-252 1106,-252 1106,-216 1191,-216 1191,-246 1185,-252"/>
<polyline fill="none" stroke="black" points="1185,-252 1185,-246 "/>
<polyline fill="none" stroke="black" points="1191,-246 1185,-246 "/>
<text text-anchor="middle" x="1148.5" y="-230.3" font-family="Times,serif" font-size="14.00">var.multi_az</text>
</g>
<!-- [root] aws_db_instance.default (expand)&#45;&gt;[root] var.multi_az -->
<g id="edge8" class="edge">
<title>[root] aws_db_instance.default (expand)&#45;&gt;[root] var.multi_az</title>
<path fill="none" stroke="black" d="M1187.65,-287.7C1181.47,-279.39 1173.96,-269.28 1167.18,-260.14"/>
<polygon fill="black" stroke="black" points="1169.98,-258.04 1161.21,-252.1 1164.36,-262.22 1169.98,-258.04"/>
</g>
<!-- [root] var.password -->
<g id="node22" class="node">
<title>[root] var.password</title>
<polygon fill="none" stroke="black" points="1291.5,-252 1209.5,-252 1209.5,-216 1297.5,-216 1297.5,-246 1291.5,-252"/>
<polyline fill="none" stroke="black" points="1291.5,-252 1291.5,-246 "/>
<polyline fill="none" stroke="black" points="1297.5,-246 1291.5,-246 "/>
<text text-anchor="middle" x="1253.5" y="-230.3" font-family="Times,serif" font-size="14.00">var.password</text>
</g>
<!-- [root] aws_db_instance.default (expand)&#45;&gt;[root] var.password -->
<g id="edge9" class="edge">
<title>[root] aws_db_instance.default (expand)&#45;&gt;[root] var.password</title>
<path fill="none" stroke="black" d="M1213.6,-287.7C1219.89,-279.39 1227.55,-269.28 1234.46,-260.14"/>
<polygon fill="black" stroke="black" points="1237.3,-262.19 1240.55,-252.1 1231.72,-257.96 1237.3,-262.19"/>
</g>
<!-- [root] var.port -->
<g id="node23" class="node">
<title>[root] var.port</title>
<polygon fill="none" stroke="black" points="1369,-252 1316,-252 1316,-216 1375,-216 1375,-246 1369,-252"/>
<polyline fill="none" stroke="black" points="1369,-252 1369,-246 "/>
<polyline fill="none" stroke="black" points="1375,-246 1369,-246 "/>
<text text-anchor="middle" x="1345.5" y="-230.3" font-family="Times,serif" font-size="14.00">var.port</text>
</g>
<!-- [root] aws_db_instance.default (expand)&#45;&gt;[root] var.port -->
<g id="edge10" class="edge">
<title>[root] aws_db_instance.default (expand)&#45;&gt;[root] var.port</title>
<path fill="none" stroke="black" d="M1235.97,-287.88C1257.39,-277.53 1284.71,-264.35 1306.7,-253.73"/>
<polygon fill="black" stroke="black" points="1308.29,-256.85 1315.77,-249.35 1305.24,-250.55 1308.29,-256.85"/>
</g>
<!-- [root] var.publicly_accessible -->
<g id="node25" class="node">
<title>[root] var.publicly_accessible</title>
<polygon fill="none" stroke="black" points="1530,-252 1393,-252 1393,-216 1536,-216 1536,-246 1530,-252"/>
<polyline fill="none" stroke="black" points="1530,-252 1530,-246 "/>
<polyline fill="none" stroke="black" points="1536,-246 1530,-246 "/>
<text text-anchor="middle" x="1464.5" y="-230.3" font-family="Times,serif" font-size="14.00">var.publicly_accessible</text>
</g>
<!-- [root] aws_db_instance.default (expand)&#45;&gt;[root] var.publicly_accessible -->
<g id="edge11" class="edge">
<title>[root] aws_db_instance.default (expand)&#45;&gt;[root] var.publicly_accessible</title>
<path fill="none" stroke="black" d="M1264.74,-287.97C1302.59,-277.93 1350.64,-265.19 1390.12,-254.72"/>
<polygon fill="black" stroke="black" points="1391.2,-258.06 1399.97,-252.11 1389.4,-251.29 1391.2,-258.06"/>
</g>
<!-- [root] var.storage_type -->
<g id="node26" class="node">
<title>[root] var.storage_type</title>
<polygon fill="none" stroke="black" points="1654.5,-252 1554.5,-252 1554.5,-216 1660.5,-216 1660.5,-246 1654.5,-252"/>
<polyline fill="none" stroke="black" points="1654.5,-252 1654.5,-246 "/>
<polyline fill="none" stroke="black" points="1660.5,-246 1654.5,-246 "/>
<text text-anchor="middle" x="1607.5" y="-230.3" font-family="Times,serif" font-size="14.00">var.storage_type</text>
</g>
<!-- [root] aws_db_instance.default (expand)&#45;&gt;[root] var.storage_type -->
<g id="edge12" class="edge">
<title>[root] aws_db_instance.default (expand)&#45;&gt;[root] var.storage_type</title>
<path fill="none" stroke="black" d="M1275.65,-295.99C1343.59,-287.27 1446.45,-272.63 1544.7,-252.04"/>
<polygon fill="black" stroke="black" points="1545.44,-255.46 1554.5,-249.96 1543.99,-248.61 1545.44,-255.46"/>
</g>
<!-- [root] var.username -->
<g id="node27" class="node">
<title>[root] var.username</title>
<polygon fill="none" stroke="black" points="1762,-252 1679,-252 1679,-216 1768,-216 1768,-246 1762,-252"/>
<polyline fill="none" stroke="black" points="1762,-252 1762,-246 "/>
<polyline fill="none" stroke="black" points="1768,-246 1762,-246 "/>
<text text-anchor="middle" x="1723.5" y="-230.3" font-family="Times,serif" font-size="14.00">var.username</text>
</g>
<!-- [root] aws_db_instance.default (expand)&#45;&gt;[root] var.username -->
<g id="edge13" class="edge">
<title>[root] aws_db_instance.default (expand)&#45;&gt;[root] var.username</title>
<path fill="none" stroke="black" d="M1275.53,-300.98C1366.64,-295.11 1524.91,-281.7 1668.98,-251.86"/>
<polygon fill="black" stroke="black" points="1669.82,-255.26 1678.89,-249.77 1668.38,-248.41 1669.82,-255.26"/>
</g>
<!-- [root] aws_subnet.private_subnet (expand) -->
<g id="node10" class="node">
<title>[root] aws_subnet.private_subnet (expand)</title>
<polygon fill="none" stroke="black" points="652,-180 489,-180 489,-144 652,-144 652,-180"/>
<text text-anchor="middle" x="570.5" y="-158.3" font-family="Times,serif" font-size="14.00">aws_subnet.private_subnet</text>
</g>
<!-- [root] aws_db_subnet_group._ (expand)&#45;&gt;[root] aws_subnet.private_subnet (expand) -->
<g id="edge14" class="edge">
<title>[root] aws_db_subnet_group._ (expand)&#45;&gt;[root] aws_subnet.private_subnet (expand)</title>
<path fill="none" stroke="black" d="M938.88,-217.69C935.72,-217.1 932.58,-216.54 929.5,-216 838.96,-200.17 735.03,-185.17 662.37,-175.19"/>
<polygon fill="black" stroke="black" points="662.71,-171.71 652.33,-173.82 661.76,-178.64 662.71,-171.71"/>
</g>
<!-- [root] aws_subnet.public_subnet (expand) -->
<g id="node11" class="node">
<title>[root] aws_subnet.public_subnet (expand)</title>
<polygon fill="none" stroke="black" points="471,-180 312,-180 312,-144 471,-144 471,-180"/>
<text text-anchor="middle" x="391.5" y="-158.3" font-family="Times,serif" font-size="14.00">aws_subnet.public_subnet</text>
</g>
<!-- [root] aws_db_subnet_group._ (expand)&#45;&gt;[root] aws_subnet.public_subnet (expand) -->
<g id="edge15" class="edge">
<title>[root] aws_db_subnet_group._ (expand)&#45;&gt;[root] aws_subnet.public_subnet (expand)</title>
<path fill="none" stroke="black" d="M938.92,-217.42C935.75,-216.91 932.59,-216.44 929.5,-216 734.12,-188.51 680.09,-206.45 481.26,-180.15"/>
<polygon fill="black" stroke="black" points="481.44,-176.64 471.06,-178.78 480.5,-183.58 481.44,-176.64"/>
</g>
<!-- [root] aws_instance.Jenkins (expand) -->
<g id="node3" class="node">
<title>[root] aws_instance.Jenkins (expand)</title>
<polygon fill="none" stroke="black" points="133,-324 0,-324 0,-288 133,-288 133,-324"/>
<text text-anchor="middle" x="66.5" y="-302.3" font-family="Times,serif" font-size="14.00">aws_instance.Jenkins</text>
</g>
<!-- [root] aws_security_group.Security_TF (expand) -->
<g id="node8" class="node">
<title>[root] aws_security_group.Security_TF (expand)</title>
<polygon fill="none" stroke="black" points="294,-180 97,-180 97,-144 294,-144 294,-180"/>
<text text-anchor="middle" x="195.5" y="-158.3" font-family="Times,serif" font-size="14.00">aws_security_group.Security_TF</text>
</g>
<!-- [root] aws_instance.Jenkins (expand)&#45;&gt;[root] aws_security_group.Security_TF (expand) -->
<g id="edge16" class="edge">
<title>[root] aws_instance.Jenkins (expand)&#45;&gt;[root] aws_security_group.Security_TF (expand)</title>
<path fill="none" stroke="black" d="M44.03,-287.92C22.53,-269.48 -4.2,-239.59 13.5,-216 23.7,-202.4 55.31,-191.15 89.38,-182.56"/>
<polygon fill="black" stroke="black" points="90.63,-185.86 99.52,-180.1 88.98,-179.06 90.63,-185.86"/>
</g>
<!-- [root] aws_instance.Jenkins (expand)&#45;&gt;[root] aws_subnet.public_subnet (expand) -->
<g id="edge17" class="edge">
<title>[root] aws_instance.Jenkins (expand)&#45;&gt;[root] aws_subnet.public_subnet (expand)</title>
<path fill="none" stroke="black" d="M54.85,-287.8C43.11,-268.13 29.05,-236.08 46.5,-216 82.42,-174.67 230.94,-187.95 302.05,-179.77"/>
<polygon fill="black" stroke="black" points="302.53,-183.23 311.96,-178.39 301.57,-176.3 302.53,-183.23"/>
</g>
<!-- [root] var.ami -->
<g id="node15" class="node">
<title>[root] var.ami</title>
<polygon fill="none" stroke="black" points="313.5,-252 261.5,-252 261.5,-216 319.5,-216 319.5,-246 313.5,-252"/>
<polyline fill="none" stroke="black" points="313.5,-252 313.5,-246 "/>
<polyline fill="none" stroke="black" points="319.5,-246 313.5,-246 "/>
<text text-anchor="middle" x="290.5" y="-230.3" font-family="Times,serif" font-size="14.00">var.ami</text>
</g>
<!-- [root] aws_instance.Jenkins (expand)&#45;&gt;[root] var.ami -->
<g id="edge18" class="edge">
<title>[root] aws_instance.Jenkins (expand)&#45;&gt;[root] var.ami</title>
<path fill="none" stroke="black" d="M121.01,-287.97C161.38,-275.35 215.41,-258.47 251.51,-247.18"/>
<polygon fill="black" stroke="black" points="252.69,-250.48 261.19,-244.16 250.6,-243.8 252.69,-250.48"/>
</g>
<!-- [root] var.instance_type -->
<g id="node20" class="node">
<title>[root] var.instance_type</title>
<polygon fill="none" stroke="black" points="161,-252 56,-252 56,-216 167,-216 167,-246 161,-252"/>
<polyline fill="none" stroke="black" points="161,-252 161,-246 "/>
<polyline fill="none" stroke="black" points="167,-246 161,-246 "/>
<text text-anchor="middle" x="111.5" y="-230.3" font-family="Times,serif" font-size="14.00">var.instance_type</text>
</g>
<!-- [root] aws_instance.Jenkins (expand)&#45;&gt;[root] var.instance_type -->
<g id="edge19" class="edge">
<title>[root] aws_instance.Jenkins (expand)&#45;&gt;[root] var.instance_type</title>
<path fill="none" stroke="black" d="M77.62,-287.7C82.86,-279.56 89.2,-269.69 94.98,-260.7"/>
<polygon fill="black" stroke="black" points="98.04,-262.41 100.5,-252.1 92.15,-258.62 98.04,-262.41"/>
</g>
<!-- [root] aws_instance.Monitoring_Logs (expand) -->
<g id="node4" class="node">
<title>[root] aws_instance.Monitoring_Logs (expand)</title>
<polygon fill="none" stroke="black" points="483.5,-324 295.5,-324 295.5,-288 483.5,-288 483.5,-324"/>
<text text-anchor="middle" x="389.5" y="-302.3" font-family="Times,serif" font-size="14.00">aws_instance.Monitoring_Logs</text>
</g>
<!-- [root] aws_instance.Monitoring_Logs (expand)&#45;&gt;[root] aws_security_group.sg_private (expand) -->
<g id="edge20" class="edge">
<title>[root] aws_instance.Monitoring_Logs (expand)&#45;&gt;[root] aws_security_group.sg_private (expand)</title>
<path fill="none" stroke="black" d="M408.78,-287.7C418.42,-279.05 430.23,-268.45 440.73,-259.03"/>
<polygon fill="black" stroke="black" points="443.34,-261.39 448.44,-252.1 438.66,-256.18 443.34,-261.39"/>
</g>
<!-- [root] aws_instance.Monitoring_Logs (expand)&#45;&gt;[root] aws_subnet.private_subnet (expand) -->
<g id="edge21" class="edge">
<title>[root] aws_instance.Monitoring_Logs (expand)&#45;&gt;[root] aws_subnet.private_subnet (expand)</title>
<path fill="none" stroke="black" d="M376.88,-287.87C364.34,-268.57 349.14,-237.13 365.5,-216 372.98,-206.34 427.97,-192.42 479.11,-181.27"/>
<polygon fill="black" stroke="black" points="479.9,-184.68 488.93,-179.15 478.42,-177.84 479.9,-184.68"/>
</g>
<!-- [root] aws_instance.Monitoring_Logs (expand)&#45;&gt;[root] var.ami -->
<g id="edge22" class="edge">
<title>[root] aws_instance.Monitoring_Logs (expand)&#45;&gt;[root] var.ami</title>
<path fill="none" stroke="black" d="M365.28,-287.88C352.58,-278.89 336.84,-267.76 323.08,-258.03"/>
<polygon fill="black" stroke="black" points="325,-255.11 314.81,-252.19 320.96,-260.82 325,-255.11"/>
</g>
<!-- [root] aws_instance.Monitoring_Logs (expand)&#45;&gt;[root] var.instance_type -->
<g id="edge23" class="edge">
<title>[root] aws_instance.Monitoring_Logs (expand)&#45;&gt;[root] var.instance_type</title>
<path fill="none" stroke="black" d="M321.85,-287.97C277.86,-276.89 220.8,-262.52 177.21,-251.54"/>
<polygon fill="black" stroke="black" points="177.83,-248.09 167.28,-249.04 176.12,-254.88 177.83,-248.09"/>
</g>
<!-- [root] aws_instance.Nginx (expand) -->
<g id="node5" class="node">
<title>[root] aws_instance.Nginx (expand)</title>
<polygon fill="none" stroke="black" points="277.5,-324 151.5,-324 151.5,-288 277.5,-288 277.5,-324"/>
<text text-anchor="middle" x="214.5" y="-302.3" font-family="Times,serif" font-size="14.00">aws_instance.Nginx</text>
</g>
<!-- [root] aws_instance.Nginx (expand)&#45;&gt;[root] aws_security_group.Security_TF (expand) -->
<g id="edge24" class="edge">
<title>[root] aws_instance.Nginx (expand)&#45;&gt;[root] aws_security_group.Security_TF (expand)</title>
<path fill="none" stroke="black" d="M212.21,-287.87C208.97,-263.67 203.02,-219.21 199.17,-190.39"/>
<polygon fill="black" stroke="black" points="202.6,-189.64 197.8,-180.19 195.66,-190.57 202.6,-189.64"/>
</g>
<!-- [root] aws_instance.Nginx (expand)&#45;&gt;[root] aws_subnet.public_subnet (expand) -->
<g id="edge25" class="edge">
<title>[root] aws_instance.Nginx (expand)&#45;&gt;[root] aws_subnet.public_subnet (expand)</title>
<path fill="none" stroke="black" d="M217.59,-287.97C222.03,-268.16 232.03,-235.68 252.5,-216 267.22,-201.85 286.1,-191.38 305.18,-183.67"/>
<polygon fill="black" stroke="black" points="306.44,-186.94 314.54,-180.11 303.95,-180.4 306.44,-186.94"/>
</g>
<!-- [root] aws_instance.Nginx (expand)&#45;&gt;[root] var.ami -->
<g id="edge26" class="edge">
<title>[root] aws_instance.Nginx (expand)&#45;&gt;[root] var.ami</title>
<path fill="none" stroke="black" d="M233.29,-287.7C242.67,-279.05 254.18,-268.45 264.41,-259.03"/>
<polygon fill="black" stroke="black" points="266.95,-261.45 271.93,-252.1 262.2,-256.3 266.95,-261.45"/>
</g>
<!-- [root] aws_instance.Nginx (expand)&#45;&gt;[root] var.instance_type -->
<g id="edge27" class="edge">
<title>[root] aws_instance.Nginx (expand)&#45;&gt;[root] var.instance_type</title>
<path fill="none" stroke="black" d="M189.3,-287.88C176.09,-278.89 159.71,-267.76 145.39,-258.03"/>
<polygon fill="black" stroke="black" points="147.03,-254.92 136.79,-252.19 143.1,-260.71 147.03,-254.92"/>
</g>
<!-- [root] aws_internet_gateway.internet_gateway (expand) -->
<g id="node6" class="node">
<title>[root] aws_internet_gateway.internet_gateway (expand)</title>
<polygon fill="none" stroke="black" points="1535,-180 1302,-180 1302,-144 1535,-144 1535,-180"/>
<text text-anchor="middle" x="1418.5" y="-158.3" font-family="Times,serif" font-size="14.00">aws_internet_gateway.internet_gateway</text>
</g>
<!-- [root] aws_vpc.vpc (expand) -->
<g id="node12" class="node">
<title>[root] aws_vpc.vpc (expand)</title>
<polygon fill="none" stroke="black" points="524,-108 437,-108 437,-72 524,-72 524,-108"/>
<text text-anchor="middle" x="480.5" y="-86.3" font-family="Times,serif" font-size="14.00">aws_vpc.vpc</text>
</g>
<!-- [root] aws_internet_gateway.internet_gateway (expand)&#45;&gt;[root] aws_vpc.vpc (expand) -->
<g id="edge28" class="edge">
<title>[root] aws_internet_gateway.internet_gateway (expand)&#45;&gt;[root] aws_vpc.vpc (expand)</title>
<path fill="none" stroke="black" d="M1301.6,-152.28C1097.05,-137.01 681.93,-106.03 534.19,-95.01"/>
<polygon fill="black" stroke="black" points="534.25,-91.5 524.02,-94.25 533.73,-98.48 534.25,-91.5"/>
</g>
<!-- [root] aws_route.IGW_Route (expand) -->
<g id="node7" class="node">
<title>[root] aws_route.IGW_Route (expand)</title>
<polygon fill="none" stroke="black" points="1805,-324 1662,-324 1662,-288 1805,-288 1805,-324"/>
<text text-anchor="middle" x="1733.5" y="-302.3" font-family="Times,serif" font-size="14.00">aws_route.IGW_Route</text>
</g>
<!-- [root] aws_route.IGW_Route (expand)&#45;&gt;[root] aws_internet_gateway.internet_gateway (expand) -->
<g id="edge29" class="edge">
<title>[root] aws_route.IGW_Route (expand)&#45;&gt;[root] aws_internet_gateway.internet_gateway (expand)</title>
<path fill="none" stroke="black" d="M1805.13,-305.25C1913.33,-303.31 2099.02,-289.61 2031.5,-216 1999.33,-180.93 1714.92,-169 1545.02,-164.99"/>
<polygon fill="black" stroke="black" points="1545.09,-161.49 1535.01,-164.76 1544.93,-168.49 1545.09,-161.49"/>
</g>
<!-- [root] aws_security_group.Security_TF (expand)&#45;&gt;[root] aws_vpc.vpc (expand) -->
<g id="edge30" class="edge">
<title>[root] aws_security_group.Security_TF (expand)&#45;&gt;[root] aws_vpc.vpc (expand)</title>
<path fill="none" stroke="black" d="M264.85,-143.97C314.74,-131.71 381.04,-115.43 426.9,-104.17"/>
<polygon fill="black" stroke="black" points="427.77,-107.56 436.64,-101.77 426.1,-100.76 427.77,-107.56"/>
</g>
<!-- [root] var.ports -->
<g id="node24" class="node">
<title>[root] var.ports</title>
<polygon fill="none" stroke="black" points="221.5,-108 163.5,-108 163.5,-72 227.5,-72 227.5,-102 221.5,-108"/>
<polyline fill="none" stroke="black" points="221.5,-108 221.5,-102 "/>
<polyline fill="none" stroke="black" points="227.5,-102 221.5,-102 "/>
<text text-anchor="middle" x="195.5" y="-86.3" font-family="Times,serif" font-size="14.00">var.ports</text>
</g>
<!-- [root] aws_security_group.Security_TF (expand)&#45;&gt;[root] var.ports -->
<g id="edge31" class="edge">
<title>[root] aws_security_group.Security_TF (expand)&#45;&gt;[root] var.ports</title>
<path fill="none" stroke="black" d="M195.5,-143.7C195.5,-135.98 195.5,-126.71 195.5,-118.11"/>
<polygon fill="black" stroke="black" points="199,-118.1 195.5,-108.1 192,-118.1 199,-118.1"/>
</g>
<!-- [root] aws_security_group.sg_private (expand)&#45;&gt;[root] aws_security_group.Security_TF (expand) -->
<g id="edge32" class="edge">
<title>[root] aws_security_group.sg_private (expand)&#45;&gt;[root] aws_security_group.Security_TF (expand)</title>
<path fill="none" stroke="black" d="M401.31,-215.97C362.23,-205.91 312.6,-193.14 271.87,-182.65"/>
<polygon fill="black" stroke="black" points="272.54,-179.21 261.99,-180.11 270.8,-185.99 272.54,-179.21"/>
</g>
<!-- [root] aws_subnet.private_subnet (expand)&#45;&gt;[root] aws_vpc.vpc (expand) -->
<g id="edge33" class="edge">
<title>[root] aws_subnet.private_subnet (expand)&#45;&gt;[root] aws_vpc.vpc (expand)</title>
<path fill="none" stroke="black" d="M548.25,-143.7C536.92,-134.88 522.97,-124.03 510.68,-114.47"/>
<polygon fill="black" stroke="black" points="512.53,-111.48 502.49,-108.1 508.24,-117.01 512.53,-111.48"/>
</g>
<!-- [root] aws_subnet.public_subnet (expand)&#45;&gt;[root] aws_vpc.vpc (expand) -->
<g id="edge34" class="edge">
<title>[root] aws_subnet.public_subnet (expand)&#45;&gt;[root] aws_vpc.vpc (expand)</title>
<path fill="none" stroke="black" d="M413.5,-143.7C424.71,-134.88 438.5,-124.03 450.65,-114.47"/>
<polygon fill="black" stroke="black" points="453.06,-117.04 458.75,-108.1 448.73,-111.54 453.06,-117.04"/>
</g>
<!-- [root] provider[&quot;registry.terraform.io/hashicorp/aws&quot;] -->
<g id="node13" class="node">
<title>[root] provider[&quot;registry.terraform.io/hashicorp/aws&quot;]</title>
<polygon fill="none" stroke="black" points="480.5,-36 227.96,-18 480.5,0 733.04,-18 480.5,-36"/>
<text text-anchor="middle" x="480.5" y="-14.3" font-family="Times,serif" font-size="14.00">provider[&quot;registry.terraform.io/hashicorp/aws&quot;]</text>
</g>
<!-- [root] aws_vpc.vpc (expand)&#45;&gt;[root] provider[&quot;registry.terraform.io/hashicorp/aws&quot;] -->
<g id="edge35" class="edge">
<title>[root] aws_vpc.vpc (expand)&#45;&gt;[root] provider[&quot;registry.terraform.io/hashicorp/aws&quot;]</title>
<path fill="none" stroke="black" d="M480.5,-71.7C480.5,-63.98 480.5,-54.71 480.5,-46.11"/>
<polygon fill="black" stroke="black" points="484,-46.1 480.5,-36.1 477,-46.1 484,-46.1"/>
</g>
<!-- [root] provider[&quot;registry.terraform.io/hashicorp/aws&quot;] (close) -->
<g id="node28" class="node">
<title>[root] provider[&quot;registry.terraform.io/hashicorp/aws&quot;] (close)</title>
<ellipse fill="none" stroke="black" cx="389.5" cy="-378" rx="227.46" ry="18"/>
<text text-anchor="middle" x="389.5" y="-374.3" font-family="Times,serif" font-size="14.00">[root] provider[&quot;registry.terraform.io/hashicorp/aws&quot;] (close)</text>
</g>
<!-- [root] provider[&quot;registry.terraform.io/hashicorp/aws&quot;] (close)&#45;&gt;[root] aws_db_instance.default (expand) -->
<g id="edge36" class="edge">
<title>[root] provider[&quot;registry.terraform.io/hashicorp/aws&quot;] (close)&#45;&gt;[root] aws_db_instance.default (expand)</title>
<path fill="none" stroke="black" d="M536.84,-364.28C706.02,-349.68 977.85,-326.22 1115.19,-314.36"/>
<polygon fill="black" stroke="black" points="1115.59,-317.84 1125.25,-313.5 1114.98,-310.87 1115.59,-317.84"/>
</g>
<!-- [root] provider[&quot;registry.terraform.io/hashicorp/aws&quot;] (close)&#45;&gt;[root] aws_instance.Jenkins (expand) -->
<g id="edge37" class="edge">
<title>[root] provider[&quot;registry.terraform.io/hashicorp/aws&quot;] (close)&#45;&gt;[root] aws_instance.Jenkins (expand)</title>
<path fill="none" stroke="black" d="M314.06,-360.99C267.52,-351.07 206.34,-337.96 142.99,-324.1"/>
<polygon fill="black" stroke="black" points="143.74,-320.68 133.22,-321.96 142.24,-327.52 143.74,-320.68"/>
</g>
<!-- [root] provider[&quot;registry.terraform.io/hashicorp/aws&quot;] (close)&#45;&gt;[root] aws_instance.Monitoring_Logs (expand) -->
<g id="edge38" class="edge">
<title>[root] provider[&quot;registry.terraform.io/hashicorp/aws&quot;] (close)&#45;&gt;[root] aws_instance.Monitoring_Logs (expand)</title>
<path fill="none" stroke="black" d="M389.5,-359.7C389.5,-351.98 389.5,-342.71 389.5,-334.11"/>
<polygon fill="black" stroke="black" points="393,-334.1 389.5,-324.1 386,-334.1 393,-334.1"/>
</g>
<!-- [root] provider[&quot;registry.terraform.io/hashicorp/aws&quot;] (close)&#45;&gt;[root] aws_instance.Nginx (expand) -->
<g id="edge39" class="edge">
<title>[root] provider[&quot;registry.terraform.io/hashicorp/aws&quot;] (close)&#45;&gt;[root] aws_instance.Nginx (expand)</title>
<path fill="none" stroke="black" d="M347.58,-360.23C323.37,-350.55 292.71,-338.28 266.91,-327.97"/>
<polygon fill="black" stroke="black" points="267.88,-324.58 257.29,-324.12 265.28,-331.08 267.88,-324.58"/>
</g>
<!-- [root] provider[&quot;registry.terraform.io/hashicorp/aws&quot;] (close)&#45;&gt;[root] aws_route.IGW_Route (expand) -->
<g id="edge40" class="edge">
<title>[root] provider[&quot;registry.terraform.io/hashicorp/aws&quot;] (close)&#45;&gt;[root] aws_route.IGW_Route (expand)</title>
<path fill="none" stroke="black" d="M573.56,-367.41C869.58,-352 1439.67,-322.3 1651.56,-311.27"/>
<polygon fill="black" stroke="black" points="1651.88,-314.76 1661.68,-310.74 1651.51,-307.77 1651.88,-314.76"/>
</g>
<!-- [root] root -->
<g id="node29" class="node">
<title>[root] root</title>
<ellipse fill="none" stroke="black" cx="389.5" cy="-450" rx="47.39" ry="18"/>
<text text-anchor="middle" x="389.5" y="-446.3" font-family="Times,serif" font-size="14.00">[root] root</text>
</g>
<!-- [root] root&#45;&gt;[root] provider[&quot;registry.terraform.io/hashicorp/aws&quot;] (close) -->
<g id="edge41" class="edge">
<title>[root] root&#45;&gt;[root] provider[&quot;registry.terraform.io/hashicorp/aws&quot;] (close)</title>
<path fill="none" stroke="black" d="M389.5,-431.7C389.5,-423.98 389.5,-414.71 389.5,-406.11"/>
<polygon fill="black" stroke="black" points="393,-406.1 389.5,-396.1 386,-406.1 393,-406.1"/>
</g>
</g>
</svg>
