<?xml version="1.0" encoding="UTF-8" standalone="no"?>
<!DOCTYPE svg PUBLIC "-//W3C//DTD SVG 1.1//EN"
 "http://www.w3.org/Graphics/SVG/1.1/DTD/svg11.dtd">
<!-- Generated by graphviz version 2.43.0 (0)
 -->
<!-- Title: %3 Pages: 1 -->
<svg width="2562pt" height="476pt"
 viewBox="0.00 0.00 2561.60 476.00" xmlns="http://www.w3.org/2000/svg" xmlns:xlink="http://www.w3.org/1999/xlink">
<g id="graph0" class="graph" transform="scale(1 1) rotate(0) translate(4 472)">
<title>%3</title>
<polygon fill="white" stroke="transparent" points="-4,4 -4,-472 2557.6,-472 2557.6,4 -4,4"/>
<!-- [root] aws_autoscaling_group.ASG (expand) -->
<g id="node1" class="node">
<title>[root] aws_autoscaling_group.ASG (expand)</title>
<polygon fill="none" stroke="black" points="709.6,-324 534.6,-324 534.6,-288 709.6,-288 709.6,-324"/>
<text text-anchor="middle" x="622.1" y="-302.3" font-family="Times,serif" font-size="14.00">aws_autoscaling_group.ASG</text>
</g>
<!-- [root] aws_launch_template.wordpress&#45;tmplt (expand) -->
<g id="node8" class="node">
<title>[root] aws_launch_template.wordpress&#45;tmplt (expand)</title>
<polygon fill="none" stroke="black" points="441.6,-252 214.6,-252 214.6,-216 441.6,-216 441.6,-252"/>
<text text-anchor="middle" x="328.1" y="-230.3" font-family="Times,serif" font-size="14.00">aws_launch_template.wordpress&#45;tmplt</text>
</g>
<!-- [root] aws_autoscaling_group.ASG (expand)&#45;&gt;[root] aws_launch_template.wordpress&#45;tmplt (expand) -->
<g id="edge1" class="edge">
<title>[root] aws_autoscaling_group.ASG (expand)&#45;&gt;[root] aws_launch_template.wordpress&#45;tmplt (expand)</title>
<path fill="none" stroke="black" d="M550.56,-287.97C507.97,-277.83 453.79,-264.93 409.57,-254.4"/>
<polygon fill="black" stroke="black" points="410.25,-250.96 399.71,-252.05 408.63,-257.77 410.25,-250.96"/>
</g>
<!-- [root] aws_lb_target_group.wordpress&#45;tg (expand) -->
<g id="node11" class="node">
<title>[root] aws_lb_target_group.wordpress&#45;tg (expand)</title>
<polygon fill="none" stroke="black" points="1219.6,-252 1014.6,-252 1014.6,-216 1219.6,-216 1219.6,-252"/>
<text text-anchor="middle" x="1117.1" y="-230.3" font-family="Times,serif" font-size="14.00">aws_lb_target_group.wordpress&#45;tg</text>
</g>
<!-- [root] aws_autoscaling_group.ASG (expand)&#45;&gt;[root] aws_lb_target_group.wordpress&#45;tg (expand) -->
<g id="edge2" class="edge">
<title>[root] aws_autoscaling_group.ASG (expand)&#45;&gt;[root] aws_lb_target_group.wordpress&#45;tg (expand)</title>
<path fill="none" stroke="black" d="M709.71,-289.3C712.54,-288.85 715.34,-288.42 718.1,-288 842.42,-269.24 876.62,-269.73 1004.15,-252.25"/>
<polygon fill="black" stroke="black" points="1004.88,-255.68 1014.31,-250.85 1003.92,-248.75 1004.88,-255.68"/>
</g>
<!-- [root] aws_db_instance.default (expand) -->
<g id="node2" class="node">
<title>[root] aws_db_instance.default (expand)</title>
<polygon fill="none" stroke="black" points="1815.1,-324 1665.1,-324 1665.1,-288 1815.1,-288 1815.1,-324"/>
<text text-anchor="middle" x="1740.1" y="-302.3" font-family="Times,serif" font-size="14.00">aws_db_instance.default</text>
</g>
<!-- [root] aws_db_subnet_group._ (expand) -->
<g id="node3" class="node">
<title>[root] aws_db_subnet_group._ (expand)</title>
<polygon fill="none" stroke="black" points="996.6,-252 847.6,-252 847.6,-216 996.6,-216 996.6,-252"/>
<text text-anchor="middle" x="922.1" y="-230.3" font-family="Times,serif" font-size="14.00">aws_db_subnet_group._</text>
</g>
<!-- [root] aws_db_instance.default (expand)&#45;&gt;[root] aws_db_subnet_group._ (expand) -->
<g id="edge3" class="edge">
<title>[root] aws_db_instance.default (expand)&#45;&gt;[root] aws_db_subnet_group._ (expand)</title>
<path fill="none" stroke="black" d="M1665.02,-302.74C1533.61,-298.09 1253.31,-285.09 1006.9,-251.99"/>
<polygon fill="black" stroke="black" points="1007.05,-248.48 996.67,-250.61 1006.11,-255.42 1007.05,-248.48"/>
</g>
<!-- [root] aws_security_group.sg_private (expand) -->
<g id="node14" class="node">
<title>[root] aws_security_group.sg_private (expand)</title>
<polygon fill="none" stroke="black" points="644.6,-252 459.6,-252 459.6,-216 644.6,-216 644.6,-252"/>
<text text-anchor="middle" x="552.1" y="-230.3" font-family="Times,serif" font-size="14.00">aws_security_group.sg_private</text>
</g>
<!-- [root] aws_db_instance.default (expand)&#45;&gt;[root] aws_security_group.sg_private (expand) -->
<g id="edge4" class="edge">
<title>[root] aws_db_instance.default (expand)&#45;&gt;[root] aws_security_group.sg_private (expand)</title>
<path fill="none" stroke="black" d="M1665.02,-302.5C1455.98,-295.34 869.19,-273.98 655,-252.11"/>
<polygon fill="black" stroke="black" points="655.09,-248.6 644.78,-251.04 654.36,-255.56 655.09,-248.6"/>
</g>
<!-- [root] var.allocated_storage -->
<g id="node20" class="node">
<title>[root] var.allocated_storage</title>
<polygon fill="none" stroke="black" points="2351.6,-252 2226.6,-252 2226.6,-216 2357.6,-216 2357.6,-246 2351.6,-252"/>
<polyline fill="none" stroke="black" points="2351.6,-252 2351.6,-246 "/>
<polyline fill="none" stroke="black" points="2357.6,-246 2351.6,-246 "/>
<text text-anchor="middle" x="2292.1" y="-230.3" font-family="Times,serif" font-size="14.00">var.allocated_storage</text>
</g>
<!-- [root] aws_db_instance.default (expand)&#45;&gt;[root] var.allocated_storage -->
<g id="edge5" class="edge">
<title>[root] aws_db_instance.default (expand)&#45;&gt;[root] var.allocated_storage</title>
<path fill="none" stroke="black" d="M1815.4,-299.35C1907.77,-291.82 2069.26,-276.69 2216.3,-252.21"/>
<polygon fill="black" stroke="black" points="2217.13,-255.62 2226.41,-250.5 2215.97,-248.71 2217.13,-255.62"/>
</g>
<!-- [root] var.db_name -->
<g id="node22" class="node">
<title>[root] var.db_name</title>
<polygon fill="none" stroke="black" points="2456.6,-252 2375.6,-252 2375.6,-216 2462.6,-216 2462.6,-246 2456.6,-252"/>
<polyline fill="none" stroke="black" points="2456.6,-252 2456.6,-246 "/>
<polyline fill="none" stroke="black" points="2462.6,-246 2456.6,-246 "/>
<text text-anchor="middle" x="2419.1" y="-230.3" font-family="Times,serif" font-size="14.00">var.db_name</text>
</g>
<!-- [root] aws_db_instance.default (expand)&#45;&gt;[root] var.db_name -->
<g id="edge6" class="edge">
<title>[root] aws_db_instance.default (expand)&#45;&gt;[root] var.db_name</title>
<path fill="none" stroke="black" d="M1815.21,-304.24C1931.77,-301.84 2163.04,-292.17 2365.4,-252.1"/>
<polygon fill="black" stroke="black" points="2366.21,-255.51 2375.32,-250.1 2364.83,-248.64 2366.21,-255.51"/>
</g>
<!-- [root] var.engine -->
<g id="node23" class="node">
<title>[root] var.engine</title>
<polygon fill="none" stroke="black" points="2547.6,-252 2480.6,-252 2480.6,-216 2553.6,-216 2553.6,-246 2547.6,-252"/>
<polyline fill="none" stroke="black" points="2547.6,-252 2547.6,-246 "/>
<polyline fill="none" stroke="black" points="2553.6,-246 2547.6,-246 "/>
<text text-anchor="middle" x="2517.1" y="-230.3" font-family="Times,serif" font-size="14.00">var.engine</text>
</g>
<!-- [root] aws_db_instance.default (expand)&#45;&gt;[root] var.engine -->
<g id="edge7" class="edge">
<title>[root] aws_db_instance.default (expand)&#45;&gt;[root] var.engine</title>
<path fill="none" stroke="black" d="M1815.3,-302.31C1972.13,-296.25 2330.46,-280.03 2470.44,-251.93"/>
<polygon fill="black" stroke="black" points="2471.47,-255.29 2480.53,-249.8 2470.02,-248.44 2471.47,-255.29"/>
</g>
<!-- [root] var.engine_version -->
<g id="node24" class="node">
<title>[root] var.engine_version</title>
<polygon fill="none" stroke="black" points="1389.6,-252 1276.6,-252 1276.6,-216 1395.6,-216 1395.6,-246 1389.6,-252"/>
<polyline fill="none" stroke="black" points="1389.6,-252 1389.6,-246 "/>
<polyline fill="none" stroke="black" points="1395.6,-246 1389.6,-246 "/>
<text text-anchor="middle" x="1336.1" y="-230.3" font-family="Times,serif" font-size="14.00">var.engine_version</text>
</g>
<!-- [root] aws_db_instance.default (expand)&#45;&gt;[root] var.engine_version -->
<g id="edge8" class="edge">
<title>[root] aws_db_instance.default (expand)&#45;&gt;[root] var.engine_version</title>
<path fill="none" stroke="black" d="M1664.94,-294.96C1599.16,-285.76 1500.84,-270.97 1405.93,-252.08"/>
<polygon fill="black" stroke="black" points="1406.37,-248.59 1395.87,-250.05 1404.99,-255.46 1406.37,-248.59"/>
</g>
<!-- [root] var.instance_class -->
<g id="node25" class="node">
<title>[root] var.instance_class</title>
<polygon fill="none" stroke="black" points="1522.1,-252 1414.1,-252 1414.1,-216 1528.1,-216 1528.1,-246 1522.1,-252"/>
<polyline fill="none" stroke="black" points="1522.1,-252 1522.1,-246 "/>
<polyline fill="none" stroke="black" points="1528.1,-246 1522.1,-246 "/>
<text text-anchor="middle" x="1471.1" y="-230.3" font-family="Times,serif" font-size="14.00">var.instance_class</text>
</g>
<!-- [root] aws_db_instance.default (expand)&#45;&gt;[root] var.instance_class -->
<g id="edge9" class="edge">
<title>[root] aws_db_instance.default (expand)&#45;&gt;[root] var.instance_class</title>
<path fill="none" stroke="black" d="M1674.64,-287.97C1633.18,-277.18 1579.7,-263.26 1537.97,-252.4"/>
<polygon fill="black" stroke="black" points="1538.73,-248.98 1528.17,-249.85 1536.97,-255.76 1538.73,-248.98"/>
</g>
<!-- [root] var.multi_az -->
<g id="node27" class="node">
<title>[root] var.multi_az</title>
<polygon fill="none" stroke="black" points="1625.6,-252 1546.6,-252 1546.6,-216 1631.6,-216 1631.6,-246 1625.6,-252"/>
<polyline fill="none" stroke="black" points="1625.6,-252 1625.6,-246 "/>
<polyline fill="none" stroke="black" points="1631.6,-246 1625.6,-246 "/>
<text text-anchor="middle" x="1589.1" y="-230.3" font-family="Times,serif" font-size="14.00">var.multi_az</text>
</g>
<!-- [root] aws_db_instance.default (expand)&#45;&gt;[root] var.multi_az -->
<g id="edge10" class="edge">
<title>[root] aws_db_instance.default (expand)&#45;&gt;[root] var.multi_az</title>
<path fill="none" stroke="black" d="M1703.16,-287.88C1682.61,-278.35 1656.85,-266.41 1635.01,-256.28"/>
<polygon fill="black" stroke="black" points="1636.47,-253.1 1625.92,-252.07 1633.52,-259.45 1636.47,-253.1"/>
</g>
<!-- [root] var.password -->
<g id="node28" class="node">
<title>[root] var.password</title>
<polygon fill="none" stroke="black" points="1732.1,-252 1650.1,-252 1650.1,-216 1738.1,-216 1738.1,-246 1732.1,-252"/>
<polyline fill="none" stroke="black" points="1732.1,-252 1732.1,-246 "/>
<polyline fill="none" stroke="black" points="1738.1,-246 1732.1,-246 "/>
<text text-anchor="middle" x="1694.1" y="-230.3" font-family="Times,serif" font-size="14.00">var.password</text>
</g>
<!-- [root] aws_db_instance.default (expand)&#45;&gt;[root] var.password -->
<g id="edge11" class="edge">
<title>[root] aws_db_instance.default (expand)&#45;&gt;[root] var.password</title>
<path fill="none" stroke="black" d="M1728.73,-287.7C1723.38,-279.56 1716.9,-269.69 1710.99,-260.7"/>
<polygon fill="black" stroke="black" points="1713.76,-258.54 1705.34,-252.1 1707.91,-262.38 1713.76,-258.54"/>
</g>
<!-- [root] var.port -->
<g id="node29" class="node">
<title>[root] var.port</title>
<polygon fill="none" stroke="black" points="1809.6,-252 1756.6,-252 1756.6,-216 1815.6,-216 1815.6,-246 1809.6,-252"/>
<polyline fill="none" stroke="black" points="1809.6,-252 1809.6,-246 "/>
<polyline fill="none" stroke="black" points="1815.6,-246 1809.6,-246 "/>
<text text-anchor="middle" x="1786.1" y="-230.3" font-family="Times,serif" font-size="14.00">var.port</text>
</g>
<!-- [root] aws_db_instance.default (expand)&#45;&gt;[root] var.port -->
<g id="edge12" class="edge">
<title>[root] aws_db_instance.default (expand)&#45;&gt;[root] var.port</title>
<path fill="none" stroke="black" d="M1751.47,-287.7C1756.82,-279.56 1763.31,-269.69 1769.21,-260.7"/>
<polygon fill="black" stroke="black" points="1772.3,-262.38 1774.86,-252.1 1766.45,-258.54 1772.3,-262.38"/>
</g>
<!-- [root] var.publicly_accessible -->
<g id="node31" class="node">
<title>[root] var.publicly_accessible</title>
<polygon fill="none" stroke="black" points="1970.6,-252 1833.6,-252 1833.6,-216 1976.6,-216 1976.6,-246 1970.6,-252"/>
<polyline fill="none" stroke="black" points="1970.6,-252 1970.6,-246 "/>
<polyline fill="none" stroke="black" points="1976.6,-246 1970.6,-246 "/>
<text text-anchor="middle" x="1905.1" y="-230.3" font-family="Times,serif" font-size="14.00">var.publicly_accessible</text>
</g>
<!-- [root] aws_db_instance.default (expand)&#45;&gt;[root] var.publicly_accessible -->
<g id="edge13" class="edge">
<title>[root] aws_db_instance.default (expand)&#45;&gt;[root] var.publicly_accessible</title>
<path fill="none" stroke="black" d="M1780.47,-287.88C1803.12,-278.26 1831.58,-266.19 1855.57,-256.01"/>
<polygon fill="black" stroke="black" points="1857.03,-259.2 1864.87,-252.07 1854.3,-252.75 1857.03,-259.2"/>
</g>
<!-- [root] var.storage_type -->
<g id="node32" class="node">
<title>[root] var.storage_type</title>
<polygon fill="none" stroke="black" points="2095.1,-252 1995.1,-252 1995.1,-216 2101.1,-216 2101.1,-246 2095.1,-252"/>
<polyline fill="none" stroke="black" points="2095.1,-252 2095.1,-246 "/>
<polyline fill="none" stroke="black" points="2101.1,-246 2095.1,-246 "/>
<text text-anchor="middle" x="2048.1" y="-230.3" font-family="Times,serif" font-size="14.00">var.storage_type</text>
</g>
<!-- [root] aws_db_instance.default (expand)&#45;&gt;[root] var.storage_type -->
<g id="edge14" class="edge">
<title>[root] aws_db_instance.default (expand)&#45;&gt;[root] var.storage_type</title>
<path fill="none" stroke="black" d="M1815.17,-289.95C1861.54,-280.39 1922.46,-267.37 1985,-252.21"/>
<polygon fill="black" stroke="black" points="1986.17,-255.52 1995.05,-249.75 1984.51,-248.72 1986.17,-255.52"/>
</g>
<!-- [root] var.username -->
<g id="node33" class="node">
<title>[root] var.username</title>
<polygon fill="none" stroke="black" points="2202.6,-252 2119.6,-252 2119.6,-216 2208.6,-216 2208.6,-246 2202.6,-252"/>
<polyline fill="none" stroke="black" points="2202.6,-252 2202.6,-246 "/>
<polyline fill="none" stroke="black" points="2208.6,-246 2202.6,-246 "/>
<text text-anchor="middle" x="2164.1" y="-230.3" font-family="Times,serif" font-size="14.00">var.username</text>
</g>
<!-- [root] aws_db_instance.default (expand)&#45;&gt;[root] var.username -->
<g id="edge15" class="edge">
<title>[root] aws_db_instance.default (expand)&#45;&gt;[root] var.username</title>
<path fill="none" stroke="black" d="M1815.17,-297.87C1888.11,-290.12 2002.03,-275.85 2109.43,-251.94"/>
<polygon fill="black" stroke="black" points="2110.48,-255.29 2119.47,-249.67 2108.94,-248.46 2110.48,-255.29"/>
</g>
<!-- [root] aws_subnet.private_subnet (expand) -->
<g id="node15" class="node">
<title>[root] aws_subnet.private_subnet (expand)</title>
<polygon fill="none" stroke="black" points="997.6,-180 834.6,-180 834.6,-144 997.6,-144 997.6,-180"/>
<text text-anchor="middle" x="916.1" y="-158.3" font-family="Times,serif" font-size="14.00">aws_subnet.private_subnet</text>
</g>
<!-- [root] aws_db_subnet_group._ (expand)&#45;&gt;[root] aws_subnet.private_subnet (expand) -->
<g id="edge16" class="edge">
<title>[root] aws_db_subnet_group._ (expand)&#45;&gt;[root] aws_subnet.private_subnet (expand)</title>
<path fill="none" stroke="black" d="M920.62,-215.7C919.96,-207.98 919.16,-198.71 918.43,-190.11"/>
<polygon fill="black" stroke="black" points="921.91,-189.77 917.57,-180.1 914.94,-190.37 921.91,-189.77"/>
</g>
<!-- [root] aws_subnet.public_subnet (expand) -->
<g id="node16" class="node">
<title>[root] aws_subnet.public_subnet (expand)</title>
<polygon fill="none" stroke="black" points="631.6,-180 472.6,-180 472.6,-144 631.6,-144 631.6,-180"/>
<text text-anchor="middle" x="552.1" y="-158.3" font-family="Times,serif" font-size="14.00">aws_subnet.public_subnet</text>
</g>
<!-- [root] aws_db_subnet_group._ (expand)&#45;&gt;[root] aws_subnet.public_subnet (expand) -->
<g id="edge17" class="edge">
<title>[root] aws_db_subnet_group._ (expand)&#45;&gt;[root] aws_subnet.public_subnet (expand)</title>
<path fill="none" stroke="black" d="M847.55,-218.99C793.35,-208.79 717.91,-194.57 641.92,-180.15"/>
<polygon fill="black" stroke="black" points="642.15,-176.64 631.68,-178.21 640.85,-183.51 642.15,-176.64"/>
</g>
<!-- [root] aws_instance.Jenkins (expand) -->
<g id="node4" class="node">
<title>[root] aws_instance.Jenkins (expand)</title>
<polygon fill="none" stroke="black" points="157.6,-252 24.6,-252 24.6,-216 157.6,-216 157.6,-252"/>
<text text-anchor="middle" x="91.1" y="-230.3" font-family="Times,serif" font-size="14.00">aws_instance.Jenkins</text>
</g>
<!-- [root] aws_security_group.Security_TF (expand) -->
<g id="node13" class="node">
<title>[root] aws_security_group.Security_TF (expand)</title>
<polygon fill="none" stroke="black" points="454.6,-180 257.6,-180 257.6,-144 454.6,-144 454.6,-180"/>
<text text-anchor="middle" x="356.1" y="-158.3" font-family="Times,serif" font-size="14.00">aws_security_group.Security_TF</text>
</g>
<!-- [root] aws_instance.Jenkins (expand)&#45;&gt;[root] aws_security_group.Security_TF (expand) -->
<g id="edge18" class="edge">
<title>[root] aws_instance.Jenkins (expand)&#45;&gt;[root] aws_security_group.Security_TF (expand)</title>
<path fill="none" stroke="black" d="M155.59,-215.97C193.58,-205.93 241.81,-193.19 281.45,-182.72"/>
<polygon fill="black" stroke="black" points="282.55,-186.05 291.33,-180.11 280.76,-179.28 282.55,-186.05"/>
</g>
<!-- [root] aws_instance.Jenkins (expand)&#45;&gt;[root] aws_subnet.public_subnet (expand) -->
<g id="edge19" class="edge">
<title>[root] aws_instance.Jenkins (expand)&#45;&gt;[root] aws_subnet.public_subnet (expand)</title>
<path fill="none" stroke="black" d="M157.7,-222.96C173.25,-220.65 189.75,-218.22 205.1,-216 316.56,-199.91 347.21,-198.91 462.62,-180.03"/>
<polygon fill="black" stroke="black" points="463.26,-183.48 472.56,-178.4 462.13,-176.57 463.26,-183.48"/>
</g>
<!-- [root] var.ami -->
<g id="node21" class="node">
<title>[root] var.ami</title>
<polygon fill="none" stroke="black" points="213.1,-180 161.1,-180 161.1,-144 219.1,-144 219.1,-174 213.1,-180"/>
<polyline fill="none" stroke="black" points="213.1,-180 213.1,-174 "/>
<polyline fill="none" stroke="black" points="219.1,-174 213.1,-174 "/>
<text text-anchor="middle" x="190.1" y="-158.3" font-family="Times,serif" font-size="14.00">var.ami</text>
</g>
<!-- [root] aws_instance.Jenkins (expand)&#45;&gt;[root] var.ami -->
<g id="edge20" class="edge">
<title>[root] aws_instance.Jenkins (expand)&#45;&gt;[root] var.ami</title>
<path fill="none" stroke="black" d="M115.32,-215.88C128.03,-206.89 143.77,-195.76 157.53,-186.03"/>
<polygon fill="black" stroke="black" points="159.65,-188.82 165.79,-180.19 155.61,-183.11 159.65,-188.82"/>
</g>
<!-- [root] var.instance_type -->
<g id="node26" class="node">
<title>[root] var.instance_type</title>
<polygon fill="none" stroke="black" points="136.6,-180 31.6,-180 31.6,-144 142.6,-144 142.6,-174 136.6,-180"/>
<polyline fill="none" stroke="black" points="136.6,-180 136.6,-174 "/>
<polyline fill="none" stroke="black" points="142.6,-174 136.6,-174 "/>
<text text-anchor="middle" x="87.1" y="-158.3" font-family="Times,serif" font-size="14.00">var.instance_type</text>
</g>
<!-- [root] aws_instance.Jenkins (expand)&#45;&gt;[root] var.instance_type -->
<g id="edge21" class="edge">
<title>[root] aws_instance.Jenkins (expand)&#45;&gt;[root] var.instance_type</title>
<path fill="none" stroke="black" d="M90.11,-215.7C89.67,-207.98 89.14,-198.71 88.65,-190.11"/>
<polygon fill="black" stroke="black" points="92.15,-189.89 88.08,-180.1 85.16,-190.29 92.15,-189.89"/>
</g>
<!-- [root] aws_instance.Monitoring_Logs (expand) -->
<g id="node5" class="node">
<title>[root] aws_instance.Monitoring_Logs (expand)</title>
<polygon fill="none" stroke="black" points="516.1,-324 328.1,-324 328.1,-288 516.1,-288 516.1,-324"/>
<text text-anchor="middle" x="422.1" y="-302.3" font-family="Times,serif" font-size="14.00">aws_instance.Monitoring_Logs</text>
</g>
<!-- [root] aws_instance.Monitoring_Logs (expand)&#45;&gt;[root] aws_security_group.sg_private (expand) -->
<g id="edge22" class="edge">
<title>[root] aws_instance.Monitoring_Logs (expand)&#45;&gt;[root] aws_security_group.sg_private (expand)</title>
<path fill="none" stroke="black" d="M453.9,-287.88C471.22,-278.55 492.82,-266.92 511.36,-256.94"/>
<polygon fill="black" stroke="black" points="513.03,-260.01 520.18,-252.19 509.71,-253.85 513.03,-260.01"/>
</g>
<!-- [root] aws_instance.Monitoring_Logs (expand)&#45;&gt;[root] aws_subnet.private_subnet (expand) -->
<g id="edge23" class="edge">
<title>[root] aws_instance.Monitoring_Logs (expand)&#45;&gt;[root] aws_subnet.private_subnet (expand)</title>
<path fill="none" stroke="black" d="M516.11,-289.35C519.14,-288.89 522.14,-288.44 525.1,-288 647.04,-269.96 688.46,-304.26 800.1,-252 821.47,-242 820.67,-230.72 839.1,-216 852.31,-205.45 867.52,-194.71 880.92,-185.68"/>
<polygon fill="black" stroke="black" points="883.04,-188.47 889.42,-180.01 879.16,-182.64 883.04,-188.47"/>
</g>
<!-- [root] aws_instance.Monitoring_Logs (expand)&#45;&gt;[root] var.ami -->
<g id="edge24" class="edge">
<title>[root] aws_instance.Monitoring_Logs (expand)&#45;&gt;[root] var.ami</title>
<path fill="none" stroke="black" d="M328.04,-292.44C277.53,-283.74 222.2,-270.39 205.1,-252 189.89,-235.64 186.97,-209.89 187.37,-190.29"/>
<polygon fill="black" stroke="black" points="190.87,-190.29 187.87,-180.13 183.88,-189.94 190.87,-190.29"/>
</g>
<!-- [root] aws_instance.Monitoring_Logs (expand)&#45;&gt;[root] var.instance_type -->
<g id="edge25" class="edge">
<title>[root] aws_instance.Monitoring_Logs (expand)&#45;&gt;[root] var.instance_type</title>
<path fill="none" stroke="black" d="M327.91,-299.2C214.16,-291.22 35.44,-275.16 15.1,-252 4.54,-239.98 7.88,-230.28 15.1,-216 21.24,-203.86 31.62,-193.82 42.61,-185.86"/>
<polygon fill="black" stroke="black" points="44.72,-188.66 51.08,-180.19 40.82,-182.85 44.72,-188.66"/>
</g>
<!-- [root] aws_instance.Nginx (orphan) -->
<g id="node6" class="node">
<title>[root] aws_instance.Nginx (orphan)</title>
<polygon fill="none" stroke="black" points="167.1,-108 41.1,-108 41.1,-72 167.1,-72 167.1,-108"/>
<text text-anchor="middle" x="104.1" y="-86.3" font-family="Times,serif" font-size="14.00">aws_instance.Nginx</text>
</g>
<!-- [root] provider[&quot;registry.terraform.io/hashicorp/aws&quot;] -->
<g id="node19" class="node">
<title>[root] provider[&quot;registry.terraform.io/hashicorp/aws&quot;]</title>
<polygon fill="none" stroke="black" points="349.1,-36 96.57,-18 349.1,0 601.64,-18 349.1,-36"/>
<text text-anchor="middle" x="349.1" y="-14.3" font-family="Times,serif" font-size="14.00">provider[&quot;registry.terraform.io/hashicorp/aws&quot;]</text>
</g>
<!-- [root] aws_instance.Nginx (orphan)&#45;&gt;[root] provider[&quot;registry.terraform.io/hashicorp/aws&quot;] -->
<g id="edge26" class="edge">
<title>[root] aws_instance.Nginx (orphan)&#45;&gt;[root] provider[&quot;registry.terraform.io/hashicorp/aws&quot;]</title>
<path fill="none" stroke="black" d="M163.72,-71.97C202.47,-60.9 252.73,-46.53 291.14,-35.56"/>
<polygon fill="black" stroke="black" points="292.49,-38.82 301.14,-32.7 290.56,-32.09 292.49,-38.82"/>
</g>
<!-- [root] aws_internet_gateway.internet_gateway (expand) -->
<g id="node7" class="node">
<title>[root] aws_internet_gateway.internet_gateway (expand)</title>
<polygon fill="none" stroke="black" points="1349.6,-180 1116.6,-180 1116.6,-144 1349.6,-144 1349.6,-180"/>
<text text-anchor="middle" x="1233.1" y="-158.3" font-family="Times,serif" font-size="14.00">aws_internet_gateway.internet_gateway</text>
</g>
<!-- [root] aws_vpc.vpc (expand) -->
<g id="node18" class="node">
<title>[root] aws_vpc.vpc (expand)</title>
<polygon fill="none" stroke="black" points="776.6,-108 689.6,-108 689.6,-72 776.6,-72 776.6,-108"/>
<text text-anchor="middle" x="733.1" y="-86.3" font-family="Times,serif" font-size="14.00">aws_vpc.vpc</text>
</g>
<!-- [root] aws_internet_gateway.internet_gateway (expand)&#45;&gt;[root] aws_vpc.vpc (expand) -->
<g id="edge27" class="edge">
<title>[root] aws_internet_gateway.internet_gateway (expand)&#45;&gt;[root] aws_vpc.vpc (expand)</title>
<path fill="none" stroke="black" d="M1116.51,-144.68C1012.53,-130.12 865.01,-109.47 786.74,-98.51"/>
<polygon fill="black" stroke="black" points="787.01,-95.01 776.62,-97.09 786.04,-101.95 787.01,-95.01"/>
</g>
<!-- [root] aws_launch_template.wordpress&#45;tmplt (expand)&#45;&gt;[root] aws_security_group.Security_TF (expand) -->
<g id="edge28" class="edge">
<title>[root] aws_launch_template.wordpress&#45;tmplt (expand)&#45;&gt;[root] aws_security_group.Security_TF (expand)</title>
<path fill="none" stroke="black" d="M335.02,-215.7C338.18,-207.81 341.98,-198.3 345.48,-189.55"/>
<polygon fill="black" stroke="black" points="348.8,-190.69 349.26,-180.1 342.3,-188.09 348.8,-190.69"/>
</g>
<!-- [root] aws_launch_template.wordpress&#45;tmplt (expand)&#45;&gt;[root] aws_subnet.public_subnet (expand) -->
<g id="edge29" class="edge">
<title>[root] aws_launch_template.wordpress&#45;tmplt (expand)&#45;&gt;[root] aws_subnet.public_subnet (expand)</title>
<path fill="none" stroke="black" d="M382.61,-215.97C414.32,-206.06 454.46,-193.51 487.72,-183.12"/>
<polygon fill="black" stroke="black" points="488.85,-186.43 497.35,-180.11 486.76,-179.75 488.85,-186.43"/>
</g>
<!-- [root] aws_launch_template.wordpress&#45;tmplt (expand)&#45;&gt;[root] var.ami -->
<g id="edge30" class="edge">
<title>[root] aws_launch_template.wordpress&#45;tmplt (expand)&#45;&gt;[root] var.ami</title>
<path fill="none" stroke="black" d="M294.34,-215.88C274.42,-205.77 249.13,-192.94 228.45,-182.45"/>
<polygon fill="black" stroke="black" points="229.81,-179.22 219.31,-177.81 226.64,-185.46 229.81,-179.22"/>
</g>
<!-- [root] aws_launch_template.wordpress&#45;tmplt (expand)&#45;&gt;[root] var.instance_type -->
<g id="edge31" class="edge">
<title>[root] aws_launch_template.wordpress&#45;tmplt (expand)&#45;&gt;[root] var.instance_type</title>
<path fill="none" stroke="black" d="M269.46,-215.97C234.18,-205.72 189.2,-192.65 152.74,-182.06"/>
<polygon fill="black" stroke="black" points="153.27,-178.58 142.69,-179.15 151.32,-185.3 153.27,-178.58"/>
</g>
<!-- [root] aws_lb.wordpress&#45;lb (expand) -->
<g id="node9" class="node">
<title>[root] aws_lb.wordpress&#45;lb (expand)</title>
<polygon fill="none" stroke="black" points="791.6,-252 662.6,-252 662.6,-216 791.6,-216 791.6,-252"/>
<text text-anchor="middle" x="727.1" y="-230.3" font-family="Times,serif" font-size="14.00">aws_lb.wordpress&#45;lb</text>
</g>
<!-- [root] aws_lb.wordpress&#45;lb (expand)&#45;&gt;[root] aws_security_group.Security_TF (expand) -->
<g id="edge32" class="edge">
<title>[root] aws_lb.wordpress&#45;lb (expand)&#45;&gt;[root] aws_security_group.Security_TF (expand)</title>
<path fill="none" stroke="black" d="M662.57,-217.98C659.37,-217.3 656.2,-216.63 653.1,-216 590.89,-203.31 521,-190.76 464.66,-181.05"/>
<polygon fill="black" stroke="black" points="465.11,-177.58 454.66,-179.34 463.92,-184.48 465.11,-177.58"/>
</g>
<!-- [root] aws_lb.wordpress&#45;lb (expand)&#45;&gt;[root] aws_subnet.public_subnet (expand) -->
<g id="edge33" class="edge">
<title>[root] aws_lb.wordpress&#45;lb (expand)&#45;&gt;[root] aws_subnet.public_subnet (expand)</title>
<path fill="none" stroke="black" d="M684.29,-215.88C660.16,-206.22 629.82,-194.09 604.3,-183.88"/>
<polygon fill="black" stroke="black" points="605.36,-180.53 594.77,-180.07 602.76,-187.03 605.36,-180.53"/>
</g>
<!-- [root] aws_subnet.public_subnet2 (expand) -->
<g id="node17" class="node">
<title>[root] aws_subnet.public_subnet2 (expand)</title>
<polygon fill="none" stroke="black" points="816.1,-180 650.1,-180 650.1,-144 816.1,-144 816.1,-180"/>
<text text-anchor="middle" x="733.1" y="-158.3" font-family="Times,serif" font-size="14.00">aws_subnet.public_subnet2</text>
</g>
<!-- [root] aws_lb.wordpress&#45;lb (expand)&#45;&gt;[root] aws_subnet.public_subnet2 (expand) -->
<g id="edge34" class="edge">
<title>[root] aws_lb.wordpress&#45;lb (expand)&#45;&gt;[root] aws_subnet.public_subnet2 (expand)</title>
<path fill="none" stroke="black" d="M728.59,-215.7C729.25,-207.98 730.04,-198.71 730.78,-190.11"/>
<polygon fill="black" stroke="black" points="734.27,-190.37 731.64,-180.1 727.3,-189.77 734.27,-190.37"/>
</g>
<!-- [root] aws_lb_listener.lb_tg_attach (expand) -->
<g id="node10" class="node">
<title>[root] aws_lb_listener.lb_tg_attach (expand)</title>
<polygon fill="none" stroke="black" points="898.6,-324 727.6,-324 727.6,-288 898.6,-288 898.6,-324"/>
<text text-anchor="middle" x="813.1" y="-302.3" font-family="Times,serif" font-size="14.00">aws_lb_listener.lb_tg_attach</text>
</g>
<!-- [root] aws_lb_listener.lb_tg_attach (expand)&#45;&gt;[root] aws_lb.wordpress&#45;lb (expand) -->
<g id="edge35" class="edge">
<title>[root] aws_lb_listener.lb_tg_attach (expand)&#45;&gt;[root] aws_lb.wordpress&#45;lb (expand)</title>
<path fill="none" stroke="black" d="M791.84,-287.7C781.01,-278.88 767.68,-268.03 755.94,-258.47"/>
<polygon fill="black" stroke="black" points="758.08,-255.7 748.12,-252.1 753.66,-261.13 758.08,-255.7"/>
</g>
<!-- [root] aws_lb_listener.lb_tg_attach (expand)&#45;&gt;[root] aws_lb_target_group.wordpress&#45;tg (expand) -->
<g id="edge36" class="edge">
<title>[root] aws_lb_listener.lb_tg_attach (expand)&#45;&gt;[root] aws_lb_target_group.wordpress&#45;tg (expand)</title>
<path fill="none" stroke="black" d="M887.08,-287.97C931.21,-277.8 987.37,-264.87 1033.16,-254.33"/>
<polygon fill="black" stroke="black" points="1034.1,-257.7 1043.06,-252.05 1032.53,-250.88 1034.1,-257.7"/>
</g>
<!-- [root] aws_lb_target_group.wordpress&#45;tg (expand)&#45;&gt;[root] aws_vpc.vpc (expand) -->
<g id="edge37" class="edge">
<title>[root] aws_lb_target_group.wordpress&#45;tg (expand)&#45;&gt;[root] aws_vpc.vpc (expand)</title>
<path fill="none" stroke="black" d="M1101.37,-215.94C1081.47,-195.48 1045.19,-161.73 1007.1,-144 935.56,-110.7 844.15,-98.32 787.11,-93.72"/>
<polygon fill="black" stroke="black" points="787.1,-90.21 776.87,-92.95 786.58,-97.19 787.1,-90.21"/>
</g>
<!-- [root] aws_route.IGW_Route (expand) -->
<g id="node12" class="node">
<title>[root] aws_route.IGW_Route (expand)</title>
<polygon fill="none" stroke="black" points="1146.6,-324 1003.6,-324 1003.6,-288 1146.6,-288 1146.6,-324"/>
<text text-anchor="middle" x="1075.1" y="-302.3" font-family="Times,serif" font-size="14.00">aws_route.IGW_Route</text>
</g>
<!-- [root] aws_route.IGW_Route (expand)&#45;&gt;[root] aws_internet_gateway.internet_gateway (expand) -->
<g id="edge38" class="edge">
<title>[root] aws_route.IGW_Route (expand)&#45;&gt;[root] aws_internet_gateway.internet_gateway (expand)</title>
<path fill="none" stroke="black" d="M1146.87,-298C1177.15,-291.15 1209.8,-277.81 1229.1,-252 1242.16,-234.55 1242.05,-209.34 1239.32,-190.21"/>
<polygon fill="black" stroke="black" points="1242.76,-189.55 1237.6,-180.29 1235.86,-190.74 1242.76,-189.55"/>
</g>
<!-- [root] aws_security_group.Security_TF (expand)&#45;&gt;[root] aws_vpc.vpc (expand) -->
<g id="edge39" class="edge">
<title>[root] aws_security_group.Security_TF (expand)&#45;&gt;[root] aws_vpc.vpc (expand)</title>
<path fill="none" stroke="black" d="M447.85,-143.97C520.37,-130.5 619.11,-112.17 679.36,-100.98"/>
<polygon fill="black" stroke="black" points="680.23,-104.38 689.42,-99.11 678.95,-97.5 680.23,-104.38"/>
</g>
<!-- [root] var.ports -->
<g id="node30" class="node">
<title>[root] var.ports</title>
<polygon fill="none" stroke="black" points="382.1,-108 324.1,-108 324.1,-72 388.1,-72 388.1,-102 382.1,-108"/>
<polyline fill="none" stroke="black" points="382.1,-108 382.1,-102 "/>
<polyline fill="none" stroke="black" points="388.1,-102 382.1,-102 "/>
<text text-anchor="middle" x="356.1" y="-86.3" font-family="Times,serif" font-size="14.00">var.ports</text>
</g>
<!-- [root] aws_security_group.Security_TF (expand)&#45;&gt;[root] var.ports -->
<g id="edge40" class="edge">
<title>[root] aws_security_group.Security_TF (expand)&#45;&gt;[root] var.ports</title>
<path fill="none" stroke="black" d="M356.1,-143.7C356.1,-135.98 356.1,-126.71 356.1,-118.11"/>
<polygon fill="black" stroke="black" points="359.6,-118.1 356.1,-108.1 352.6,-118.1 359.6,-118.1"/>
</g>
<!-- [root] aws_security_group.sg_private (expand)&#45;&gt;[root] aws_security_group.Security_TF (expand) -->
<g id="edge41" class="edge">
<title>[root] aws_security_group.sg_private (expand)&#45;&gt;[root] aws_security_group.Security_TF (expand)</title>
<path fill="none" stroke="black" d="M504.41,-215.97C477.02,-206.19 442.44,-193.84 413.57,-183.52"/>
<polygon fill="black" stroke="black" points="414.61,-180.18 404.01,-180.11 412.25,-186.77 414.61,-180.18"/>
</g>
<!-- [root] aws_subnet.private_subnet (expand)&#45;&gt;[root] aws_vpc.vpc (expand) -->
<g id="edge42" class="edge">
<title>[root] aws_subnet.private_subnet (expand)&#45;&gt;[root] aws_vpc.vpc (expand)</title>
<path fill="none" stroke="black" d="M871.34,-143.88C845.7,-134.07 813.38,-121.71 786.44,-111.4"/>
<polygon fill="black" stroke="black" points="787.37,-108.01 776.78,-107.71 784.87,-114.55 787.37,-108.01"/>
</g>
<!-- [root] aws_subnet.public_subnet (expand)&#45;&gt;[root] aws_vpc.vpc (expand) -->
<g id="edge43" class="edge">
<title>[root] aws_subnet.public_subnet (expand)&#45;&gt;[root] aws_vpc.vpc (expand)</title>
<path fill="none" stroke="black" d="M596.38,-143.88C621.64,-134.11 653.47,-121.8 680.06,-111.51"/>
<polygon fill="black" stroke="black" points="681.53,-114.7 689.59,-107.83 679.01,-108.17 681.53,-114.7"/>
</g>
<!-- [root] aws_subnet.public_subnet2 (expand)&#45;&gt;[root] aws_vpc.vpc (expand) -->
<g id="edge44" class="edge">
<title>[root] aws_subnet.public_subnet2 (expand)&#45;&gt;[root] aws_vpc.vpc (expand)</title>
<path fill="none" stroke="black" d="M733.1,-143.7C733.1,-135.98 733.1,-126.71 733.1,-118.11"/>
<polygon fill="black" stroke="black" points="736.6,-118.1 733.1,-108.1 729.6,-118.1 736.6,-118.1"/>
</g>
<!-- [root] aws_vpc.vpc (expand)&#45;&gt;[root] provider[&quot;registry.terraform.io/hashicorp/aws&quot;] -->
<g id="edge45" class="edge">
<title>[root] aws_vpc.vpc (expand)&#45;&gt;[root] provider[&quot;registry.terraform.io/hashicorp/aws&quot;]</title>
<path fill="none" stroke="black" d="M689.43,-81.04C625.43,-69.37 505.21,-47.46 426.15,-33.04"/>
<polygon fill="black" stroke="black" points="426.7,-29.59 416.24,-31.24 425.45,-36.47 426.7,-29.59"/>
</g>
<!-- [root] provider[&quot;registry.terraform.io/hashicorp/aws&quot;] (close) -->
<g id="node34" class="node">
<title>[root] provider[&quot;registry.terraform.io/hashicorp/aws&quot;] (close)</title>
<ellipse fill="none" stroke="black" cx="622.1" cy="-378" rx="227.46" ry="18"/>
<text text-anchor="middle" x="622.1" y="-374.3" font-family="Times,serif" font-size="14.00">[root] provider[&quot;registry.terraform.io/hashicorp/aws&quot;] (close)</text>
</g>
<!-- [root] provider[&quot;registry.terraform.io/hashicorp/aws&quot;] (close)&#45;&gt;[root] aws_autoscaling_group.ASG (expand) -->
<g id="edge46" class="edge">
<title>[root] provider[&quot;registry.terraform.io/hashicorp/aws&quot;] (close)&#45;&gt;[root] aws_autoscaling_group.ASG (expand)</title>
<path fill="none" stroke="black" d="M622.1,-359.7C622.1,-351.98 622.1,-342.71 622.1,-334.11"/>
<polygon fill="black" stroke="black" points="625.6,-334.1 622.1,-324.1 618.6,-334.1 625.6,-334.1"/>
</g>
<!-- [root] provider[&quot;registry.terraform.io/hashicorp/aws&quot;] (close)&#45;&gt;[root] aws_db_instance.default (expand) -->
<g id="edge47" class="edge">
<title>[root] provider[&quot;registry.terraform.io/hashicorp/aws&quot;] (close)&#45;&gt;[root] aws_db_instance.default (expand)</title>
<path fill="none" stroke="black" d="M794.34,-366.22C1037.36,-351 1471.65,-323.81 1654.85,-312.34"/>
<polygon fill="black" stroke="black" points="1655.21,-315.82 1664.97,-311.7 1654.77,-308.84 1655.21,-315.82"/>
</g>
<!-- [root] provider[&quot;registry.terraform.io/hashicorp/aws&quot;] (close)&#45;&gt;[root] aws_instance.Jenkins (expand) -->
<g id="edge48" class="edge">
<title>[root] provider[&quot;registry.terraform.io/hashicorp/aws&quot;] (close)&#45;&gt;[root] aws_instance.Jenkins (expand)</title>
<path fill="none" stroke="black" d="M507.23,-362.41C450.08,-353.77 380.3,-341.11 319.1,-324 254.54,-305.95 182.95,-276.34 137.52,-256.28"/>
<polygon fill="black" stroke="black" points="138.8,-253.01 128.24,-252.15 135.96,-259.41 138.8,-253.01"/>
</g>
<!-- [root] provider[&quot;registry.terraform.io/hashicorp/aws&quot;] (close)&#45;&gt;[root] aws_instance.Monitoring_Logs (expand) -->
<g id="edge49" class="edge">
<title>[root] provider[&quot;registry.terraform.io/hashicorp/aws&quot;] (close)&#45;&gt;[root] aws_instance.Monitoring_Logs (expand)</title>
<path fill="none" stroke="black" d="M574.45,-360.32C546.2,-350.43 510.18,-337.83 480.26,-327.36"/>
<polygon fill="black" stroke="black" points="481.37,-324.04 470.78,-324.04 479.06,-330.64 481.37,-324.04"/>
</g>
<!-- [root] provider[&quot;registry.terraform.io/hashicorp/aws&quot;] (close)&#45;&gt;[root] aws_instance.Nginx (orphan) -->
<g id="edge50" class="edge">
<title>[root] provider[&quot;registry.terraform.io/hashicorp/aws&quot;] (close)&#45;&gt;[root] aws_instance.Nginx (orphan)</title>
<path fill="none" stroke="black" d="M442.11,-366.98C278.51,-353.44 55.24,-322.3 5.1,-252 -10.77,-229.74 15.83,-152.9 22.1,-144 30.84,-131.62 43.47,-121.43 56.21,-113.4"/>
<polygon fill="black" stroke="black" points="58.18,-116.3 65,-108.19 54.61,-110.27 58.18,-116.3"/>
</g>
<!-- [root] provider[&quot;registry.terraform.io/hashicorp/aws&quot;] (close)&#45;&gt;[root] aws_lb_listener.lb_tg_attach (expand) -->
<g id="edge51" class="edge">
<title>[root] provider[&quot;registry.terraform.io/hashicorp/aws&quot;] (close)&#45;&gt;[root] aws_lb_listener.lb_tg_attach (expand)</title>
<path fill="none" stroke="black" d="M667.85,-360.23C694.62,-350.42 728.63,-337.96 757.01,-327.56"/>
<polygon fill="black" stroke="black" points="758.22,-330.84 766.4,-324.12 755.81,-324.27 758.22,-330.84"/>
</g>
<!-- [root] provider[&quot;registry.terraform.io/hashicorp/aws&quot;] (close)&#45;&gt;[root] aws_route.IGW_Route (expand) -->
<g id="edge52" class="edge">
<title>[root] provider[&quot;registry.terraform.io/hashicorp/aws&quot;] (close)&#45;&gt;[root] aws_route.IGW_Route (expand)</title>
<path fill="none" stroke="black" d="M720.68,-361.77C802.25,-349.16 916.77,-331.47 993.33,-319.64"/>
<polygon fill="black" stroke="black" points="994.06,-323.06 1003.41,-318.08 992.99,-316.15 994.06,-323.06"/>
</g>
<!-- [root] root -->
<g id="node35" class="node">
<title>[root] root</title>
<ellipse fill="none" stroke="black" cx="622.1" cy="-450" rx="47.39" ry="18"/>
<text text-anchor="middle" x="622.1" y="-446.3" font-family="Times,serif" font-size="14.00">[root] root</text>
</g>
<!-- [root] root&#45;&gt;[root] provider[&quot;registry.terraform.io/hashicorp/aws&quot;] (close) -->
<g id="edge53" class="edge">
<title>[root] root&#45;&gt;[root] provider[&quot;registry.terraform.io/hashicorp/aws&quot;] (close)</title>
<path fill="none" stroke="black" d="M622.1,-431.7C622.1,-423.98 622.1,-414.71 622.1,-406.11"/>
<polygon fill="black" stroke="black" points="625.6,-406.1 622.1,-396.1 618.6,-406.1 625.6,-406.1"/>
</g>
</g>
</svg>
